<?xml version="1.0" encoding="iso-8859-1"?>
<!-- Generator: Adobe Illustrator 19.0.0, SVG Export Plug-In . SVG Version: 6.00 Build 0)  -->
<svg version="1.1" id="Layer_1" xmlns="http://www.w3.org/2000/svg" xmlns:xlink="http://www.w3.org/1999/xlink" x="0px" y="0px"
	 viewBox="0 0 460 460" style="enable-background:new 0 0 460 460;" xml:space="preserve">
<g>
	<path style="fill:#064855;" d="M455.682,274.5C458.505,260.101,460,245.226,460,230C460,102.975,357.026,0,230,0S0,102.975,0,230
		c0,110.163,77.456,202.22,180.875,224.724L455.682,274.5z"/>
	<path style="fill:#03242B;" d="M47.313,321.163l133.561,133.561C196.705,458.169,213.138,460,230,460
		c111.799,0,204.953-79.773,225.682-185.5l-19.591-19.591L47.313,321.163z"/>
	<polygon style="fill:#C4F5FF;" points="47.682,175 40.182,255 186.182,265 196.182,165 	"/>
	<path style="fill:#FFFFFF;" d="M40.182,255l-3.798,30.386C32.973,312.674,52.682,335,80.182,335h106v-80H40.182z"/>
	<path style="fill:#4DE1FF;" d="M76.182,235c0,0,0,9,0,20s9,20,20,20h90v-40H76.182z"/>
	<polygon style="fill:#4DE1FF;" points="76.182,195 76.182,215 186.182,215 196.182,205 186.182,195 131.182,185 	"/>
	<polygon style="fill:#89EBFF;" points="146.182,95 76.182,95 76.182,135 166.182,135 	"/>
	<polygon style="fill:#4DE1FF;" points="281.182,125 228.682,125 228.682,155 296.182,155 	"/>
	<polygon style="fill:#C4F5FF;" points="76.182,165 186.182,155 186.182,135 76.182,135 	"/>
	<polygon style="fill:#C4F5FF;" points="176.182,225 176.182,275 186.182,275 196.182,225 	"/>
	<rect x="116.182" y="225" style="fill:#C4F5FF;" width="20" height="50"/>
	<polygon style="fill:#89EBFF;" points="316.182,155 186.182,155 186.182,265 356.182,255 	"/>
	<polygon style="fill:#C4F5FF;" points="436,255 186.182,255 186.182,335 370.182,335 	"/>
	<path style="fill:#2DB8D4;" d="M186.182,235v40h90c11,0,20-9,20-20s0-20,0-20H186.182z"/>
	<polygon style="fill:#2DB8D4;" points="76.182,175 76.182,195 186.182,195 196.182,185 186.182,175 131.182,165 	"/>
	<polygon style="fill:#2DB8D4;" points="186.182,195 186.182,215 296.182,215 296.182,195 241.182,185 	"/>
	<polygon style="fill:#0C8FAA;" points="186.182,175 186.182,195 296.182,195 296.182,175 241.182,165 	"/>
	<rect x="186.182" y="225" style="fill:#89EBFF;" width="10" height="50"/>
	<rect x="236.182" y="225" style="fill:#89EBFF;" width="20" height="50"/>
	<polygon style="fill:#FFFFFF;" points="50.182,155 47.683,175 186.182,175 196.182,165 186.182,155 	"/>
	<rect x="186.182" y="155" style="fill:#C4F5FF;" width="150" height="20"/>
</g>
<g>
</g>
<g>
</g>
<g>
</g>
<g>
</g>
<g>
</g>
<g>
</g>
<g>
</g>
<g>
</g>
<g>
</g>
<g>
</g>
<g>
</g>
<g>
</g>
<g>
</g>
<g>
</g>
<g>
</g>
</svg>
